<svg version="1.0" xmlns="http://www.w3.org/2000/svg" width="400" height="400" viewBox="0 0 300 300"><path d="M45.2 2C34.3 4.9 26.5 9.4 18 18 9.3 26.6 4.9 34.3 2 45.6.1 53 0 57 0 150s.1 97 2 104.4c2.9 11.3 7.3 19 16 27.6 8.6 8.7 16.3 13.1 27.6 16 7.4 1.9 11.4 2 104.4 2s97-.1 104.4-2c11.3-2.9 19-7.3 27.6-16 8.7-8.6 13.1-16.3 16-27.6 1.9-7.4 2-11.4 2-104.4s-.1-97-2-104.4c-2.9-11.3-7.3-19-16-27.6-8.6-8.7-16.3-13.1-27.6-16C247 .1 243.1 0 149.6.1 57.3.1 52.1.2 45.2 2zm80.6 95.8l.3 14.2H149v31h-23v20.5c0 19.3.1 20.5 2.1 22.3 2.3 2.2 6.9 3.2 15.2 3.2h5.7v29.2l-15.7-.4c-21.1-.7-28.7-3.4-34.8-12.6-5-7.6-5.7-12-6.2-38l-.5-24.2H75v-31h16.9l.3-9.7.3-9.7 4.5-1.4c2.5-.7 9.5-2.8 15.5-4.6 6.1-1.8 11.5-3.2 12-3.1.6.1 1.1 5.9 1.3 14.3zm98.1 64.4c-.3.2-12.7 12.4-27.7 27.3l-27.2 27V162h27.7c15.2 0 27.4.1 27.2.2z"/></svg>