<svg xmlns="http://www.w3.org/2000/svg">

<symbol id="cart" viewBox="0 0 15.055 16">
  <g transform="translate(-15.116)"><g transform="translate(15.116)"><path d="M26.983,12.688h-6.3l-.49-1.922h8.2l1.773-7.09h-5.9V0H23.33V3.676H18.386l-.635-2.488H15.116v.938h1.906l2.719,10.656a1.656,1.656,0,1,0,2.038.844h3.711a1.656,1.656,0,1,0,1.492-.937ZM18.625,4.613h4.7V6.754L22.208,5.633l-.663.663L23.8,8.549,26.052,6.3l-.663-.663L24.267,6.754V4.613h4.7l-1.3,5.215H19.956Zm1.663,10.449a.718.718,0,1,1,.718-.718A.719.719,0,0,1,20.288,15.063Zm6.695,0a.718.718,0,1,1,.718-.718A.719.719,0,0,1,26.983,15.063Z" transform="translate(-15.116)"/></g></g>
</symbol>

<symbol id="more" viewBox="0 0 16 16">
  <path d="M14,22a8,8,0,1,1,8-8A8.008,8.008,0,0,1,14,22ZM14,7.333A6.667,6.667,0,1,0,20.667,14,6.674,6.674,0,0,0,14,7.333Z" transform="translate(-6 -6)"/><path d="M12.167,16.333a.667.667,0,0,1-.667-.667v-4a.667.667,0,1,1,1.333,0v4A.667.667,0,0,1,12.167,16.333Z" transform="translate(-4.167 -4.333)"/><circle cx="0.667" cy="0.667" r="0.667" transform="translate(7.333 4)"/>
</symbol>

<symbol id="link_arrow" viewBox="0 0 24 24">
  <g transform="translate(24 24) rotate(180)"><line x2="14" transform="translate(5 12)" fill="none" stroke-linecap="round" stroke-linejoin="round" stroke-width="1.5"/><line x2="6" y2="6" transform="translate(5 12)" fill="none" stroke-linecap="round" stroke-linejoin="round" stroke-width="1.5"/><line y1="6" x2="6" transform="translate(5 6)" fill="none" stroke-linecap="round" stroke-linejoin="round" stroke-width="1.5"/></g>
</symbol>

<symbol id="mail" viewBox="0 0 24 24">
  <rect width="18" height="14" rx="2" transform="translate(3 5)" fill="none" stroke-linecap="round" stroke-linejoin="round" stroke-width="1.5"/><path d="M3,7l9,6,9-6" fill="none" stroke-linecap="round" stroke-linejoin="round" stroke-width="1.5"/>
</symbol>

<symbol id="phone" viewBox="0 0 24 24">
  <path d="M5,4H9l2,5L8.5,10.5a11,11,0,0,0,5,5L15,13l5,2v4a2,2,0,0,1-2,2A16,16,0,0,1,3,6,2,2,0,0,1,5,4" fill="none" stroke-linecap="round" stroke-linejoin="round" stroke-width="1.5"/><path d="M15,7a2,2,0,0,1,2,2" fill="none" stroke-linecap="round" stroke-linejoin="round" stroke-width="1.5"/><path d="M15,3a6,6,0,0,1,6,6" fill="none" stroke-linecap="round" stroke-linejoin="round" stroke-width="1.5"/>
</symbol>

<symbol id="twitter" viewBox="0 0 24 24">
  <path d="M22,4.01A17.943,17.943,0,0,1,19,5a3.789,3.789,0,0,0-4.38-.737A3.933,3.933,0,0,0,12,8V9A9.392,9.392,0,0,1,4,5S-.182,12.433,8,16a9.856,9.856,0,0,1-6,2,13.425,13.425,0,0,0,10.034,1.517,11,11,0,0,0,7.651-7.742,13.84,13.84,0,0,0,.5-3.753c0-.249,1.51-2.772,1.818-4.013Z" fill="none" stroke-linecap="round" stroke-linejoin="round" stroke-width="1.5"/>
</symbol>


<symbol id="facebook" viewBox="0 0 24 24">
  <path d="M7,10v4h3v7h4V14h3l1-4H14V8a1,1,0,0,1,1-1h3V3H15a5,5,0,0,0-5,5v2H7" fill="none" stroke-linecap="round" stroke-linejoin="round" stroke-width="1.5"/>
</symbol>


<symbol id="github" viewBox="0 0 24 24">
  <path d="M9,19c-4.286,1.35-4.286-2.55-6-3m12,5V17.5c0-1,.1-1.405-.5-2,2.791-.3,5.5-1.366,5.5-6.04a4.567,4.567,0,0,0-1.333-3.21,4.192,4.192,0,0,0-.08-3.227s-1.05-.3-3.476,1.267a12.334,12.334,0,0,0-6.222,0C6.462,2.723,5.413,3.023,5.413,3.023a4.192,4.192,0,0,0-.08,3.227A4.566,4.566,0,0,0,4,9.486c0,4.64,2.709,5.68,5.5,6.014a2.19,2.19,0,0,0-.5,2V21" fill="none" stroke-linecap="round" stroke-linejoin="round" stroke-width="1.5"/>
</symbol>


<symbol id="telegram" viewBox="0 0 24 24">
  <path d="M15,10l-4,4,6,6L21,4,3,11l4,2,2,6,3-4" fill="none" stroke-linecap="round" stroke-linejoin="round" stroke-width="1.5"/>
</symbol>


<symbol id="instagram" viewBox="0 0 24 24">
  <rect width="16" height="16" rx="4" transform="translate(4 4)" fill="none" stroke-linecap="round" stroke-linejoin="round" stroke-width="1.5"/><circle cx="3" cy="3" r="3" transform="translate(9 9)" fill="none" stroke-linecap="round" stroke-linejoin="round" stroke-width="1.5"/><line y2="0.001" transform="translate(16.5 7.5)" fill="none" stroke-linecap="round" stroke-linejoin="round" stroke-width="1.5"/>
</symbol>

</svg>