<svg xmlns="http://www.w3.org/2000/svg"><symbol id="cart" viewBox="0 0 15.055 16"><path d="M26.983 12.688h-6.3l-.49-1.922h8.2l1.773-7.09h-5.9V0h-.936v3.676h-4.944l-.635-2.488h-2.635v.938h1.906l2.719 10.656a1.656 1.656 0 102.038.844h3.711a1.656 1.656 0 101.492-.937zm-8.358-8.075h4.7v2.141l-1.117-1.121-.663.663L23.8 8.549 26.052 6.3l-.663-.663-1.122 1.117V4.613h4.7l-1.3 5.215h-7.711zm1.663 10.449a.718.718 0 11.718-.718.719.719 0 01-.718.719zm6.695 0a.718.718 0 11.718-.718.719.719 0 01-.718.719z" transform="translate(-15.116)"/></symbol><symbol id="more" viewBox="0 0 16 16"><path d="M14 22a8 8 0 118-8 8.008 8.008 0 01-8 8zm0-14.667A6.667 6.667 0 1020.667 14 6.674 6.674 0 0014 7.333z" transform="translate(-6 -6)"/><path d="M12.167 16.333a.667.667 0 01-.667-.667v-4a.667.667 0 111.333 0v4a.667.667 0 01-.666.667z" transform="translate(-4.167 -4.333)"/><circle cx=".667" cy=".667" r=".667" transform="translate(7.333 4)"/></symbol><symbol id="link_arrow" viewBox="0 0 24 24"><g fill="none" stroke-linecap="round" stroke-linejoin="round" stroke-width="1.5"><path transform="rotate(180 9.5 6)" d="M0 0h14M0 0l6 6"/><path transform="rotate(180 9.5 9)" d="M0 6l6-6"/></g></symbol><symbol id="mail" viewBox="0 0 24 24"><rect width="18" height="14" rx="2" transform="translate(3 5)" fill="none" stroke-linecap="round" stroke-linejoin="round" stroke-width="1.5"/><path d="M3 7l9 6 9-6" fill="none" stroke-linecap="round" stroke-linejoin="round" stroke-width="1.5"/></symbol><symbol id="phone" viewBox="0 0 24 24"><path d="M5 4h4l2 5-2.5 1.5a11 11 0 005 5L15 13l5 2v4a2 2 0 01-2 2A16 16 0 013 6a2 2 0 012-2m10 3a2 2 0 012 2m-2-6a6 6 0 016 6" fill="none" stroke-linecap="round" stroke-linejoin="round" stroke-width="1.5"/></symbol><symbol id="twitter" viewBox="0 0 24 24"><path d="M22 4.01A17.943 17.943 0 0119 5a3.789 3.789 0 00-4.38-.737A3.933 3.933 0 0012 8v1a9.392 9.392 0 01-8-4s-4.182 7.433 4 11a9.856 9.856 0 01-6 2 13.425 13.425 0 0010.034 1.517 11 11 0 007.651-7.742 13.84 13.84 0 00.5-3.753c0-.249 1.51-2.772 1.818-4.013z" fill="none" stroke-linecap="round" stroke-linejoin="round" stroke-width="1.5"/></symbol><symbol id="facebook" viewBox="0 0 24 24"><path d="M7 10v4h3v7h4v-7h3l1-4h-4V8a1 1 0 011-1h3V3h-3a5 5 0 00-5 5v2H7" fill="none" stroke-linecap="round" stroke-linejoin="round" stroke-width="1.5"/></symbol><symbol id="github" viewBox="0 0 24 24"><path d="M9 19c-4.286 1.35-4.286-2.55-6-3m12 5v-3.5c0-1 .1-1.405-.5-2 2.791-.3 5.5-1.366 5.5-6.04a4.567 4.567 0 00-1.333-3.21 4.192 4.192 0 00-.08-3.227s-1.05-.3-3.476 1.267a12.334 12.334 0 00-6.222 0C6.462 2.723 5.413 3.023 5.413 3.023a4.192 4.192 0 00-.08 3.227A4.566 4.566 0 004 9.486c0 4.64 2.709 5.68 5.5 6.014a2.19 2.19 0 00-.5 2V21" fill="none" stroke-linecap="round" stroke-linejoin="round" stroke-width="1.5"/></symbol><symbol id="telegram" viewBox="0 0 24 24"><path d="M15 10l-4 4 6 6 4-16-18 7 4 2 2 6 3-4" fill="none" stroke-linecap="round" stroke-linejoin="round" stroke-width="1.5"/></symbol><symbol id="instagram" viewBox="0 0 24 24"><rect width="16" height="16" rx="4" transform="translate(4 4)" fill="none" stroke-linecap="round" stroke-linejoin="round" stroke-width="1.5"/><circle cx="3" cy="3" r="3" transform="translate(9 9)" fill="none" stroke-linecap="round" stroke-linejoin="round" stroke-width="1.5"/><path transform="translate(16.5 7.5)" fill="none" stroke-linecap="round" stroke-linejoin="round" stroke-width="1.5" d="M0 0v.001"/></symbol></svg>