<?xml version="1.0" standalone="no"?>
<!DOCTYPE svg PUBLIC "-//W3C//DTD SVG 20010904//EN"
 "http://www.w3.org/TR/2001/REC-SVG-20010904/DTD/svg10.dtd">
<svg version="1.0" xmlns="http://www.w3.org/2000/svg"
 width="300.000000pt" height="300.000000pt" viewBox="0 0 300.000000 300.000000"
 preserveAspectRatio="xMidYMid meet">
<metadata>
Created by potrace 1.11, written by Peter Selinger 2001-2013
</metadata>
<g transform="translate(0.000000,300.000000) scale(0.100000,-0.100000)"
fill="#000000" stroke="none">
<path d="M452 2980 c-109 -29 -187 -74 -272 -160 -87 -86 -131 -163 -160 -276
-19 -74 -20 -114 -20 -1044 0 -930 1 -970 20 -1044 29 -113 73 -190 160 -276
86 -87 163 -131 276 -160 74 -19 114 -20 1044 -20 930 0 970 1 1044 20 113 29
190 73 276 160 87 86 131 163 160 276 19 74 20 114 20 1044 0 930 -1 970 -20
1044 -29 113 -73 190 -160 276 -86 87 -163 131 -276 160 -74 19 -113 20 -1048
19 -923 0 -975 -1 -1044 -19z m806 -958 l3 -142 114 0 115 0 0 -155 0 -155
-115 0 -115 0 0 -205 c0 -193 1 -205 21 -223 23 -22 69 -32 152 -32 l57 0 0
-146 0 -146 -157 4 c-211 7 -287 34 -348 126 -50 76 -57 120 -62 380 l-5 242
-84 0 -84 0 0 155 0 155 85 0 84 0 3 97 3 97 45 14 c25 7 95 28 155 46 61 18
115 32 120 31 6 -1 11 -59 13 -143z m981 -644 c-3 -2 -127 -124 -277 -273
l-272 -270 0 273 0 272 277 0 c152 0 274 -1 272 -2z"/>
</g>
</svg>
