<svg xmlns="http://www.w3.org/2000/svg" width="136.188" height="27.42"><g id="Сгруппировать_10" data-name="Сгруппировать 10" transform="translate(-390.45 -37)"><path id="Контур_9" data-name="Контур 9" d="M10.44 18H7.35v-4.2l-4.5 1.35V18H.45v4.32h2.4v5.31c0 2.19.54 3.69 1.65 4.56q1.665 1.26 5.94.81v-4.08c-2.19.12-3.09-.09-3.09-1.29v-5.31h3.09zm17.52 9.3a8.72 8.72 0 00.18-1.8 7.737 7.737 0 00-2.19-5.64 7.114 7.114 0 00-5.43-2.28 7.7 7.7 0 00-7.98 7.92 7.687 7.687 0 002.25 5.67 8.268 8.268 0 006.06 2.25 7.5 7.5 0 006.54-3.09l-3.6-2.07a3.727 3.727 0 01-2.88 1.14c-1.89 0-3.09-.69-3.6-2.1zm-10.74-3.36a3.042 3.042 0 013.27-2.37 2.985 2.985 0 013.18 2.37zm20.67 9.48a7.668 7.668 0 006.78-3.87l-3.93-2.25a2.926 2.926 0 01-2.91 1.68 3.318 3.318 0 01-3.39-3.48 3.318 3.318 0 013.39-3.48 2.953 2.953 0 012.91 1.68l3.93-2.28a7.8 7.8 0 00-6.78-3.84 7.742 7.742 0 00-7.95 7.92 7.742 7.742 0 007.95 7.92zm17.52-15.84a4.963 4.963 0 00-4.29 1.83V12h-4.5v21h4.5v-8.19c0-2.04 1.08-3.09 2.79-3.09a2.476 2.476 0 012.61 2.73V33h4.5v-9.21a6.229 6.229 0 00-1.62-4.56 5.274 5.274 0 00-3.99-1.65zm19.71 1.95a5.319 5.319 0 00-4.38-1.95 6.962 6.962 0 00-5.28 2.25 7.473 7.473 0 00-2.1 5.37 7.593 7.593 0 002.1 5.4 7.044 7.044 0 005.28 2.22 5.319 5.319 0 004.38-1.95v1.38c0 2.07-1.26 3.21-3.39 3.21a3.594 3.594 0 01-3.42-1.89l-3.84 2.22c1.35 2.43 3.72 3.63 7.11 3.63a8.7 8.7 0 005.61-1.83 6.369 6.369 0 002.31-5.34V18h-4.38zm-6.24 8.19a3.236 3.236 0 01-1.02-2.52 3.236 3.236 0 011.02-2.52 4.028 4.028 0 015.22 0 3.236 3.236 0 011.02 2.52 3.236 3.236 0 01-1.02 2.52 4.028 4.028 0 01-5.22 0zm28.59-.42a8.72 8.72 0 00.18-1.8 7.737 7.737 0 00-2.19-5.64 7.114 7.114 0 00-5.43-2.28 7.7 7.7 0 00-7.98 7.92 7.687 7.687 0 002.25 5.67 8.268 8.268 0 006.06 2.25 7.5 7.5 0 006.54-3.09l-3.6-2.07a3.727 3.727 0 01-2.88 1.14c-1.89 0-3.09-.69-3.6-2.1zm-10.74-3.36A3.042 3.042 0 0190 21.57a2.985 2.985 0 013.18 2.37zm24.21-4.53a5.56 5.56 0 00-4.47-1.83 6.657 6.657 0 00-5.07 2.31 7.946 7.946 0 00-2.1 5.61 8.019 8.019 0 002.1 5.64 6.627 6.627 0 005.07 2.28 5.56 5.56 0 004.47-1.83V33h4.5V18h-4.5zm-6.15 8.76a3.624 3.624 0 01-.99-2.67 3.624 3.624 0 01.99-2.67 3.857 3.857 0 015.16 0 3.624 3.624 0 01.99 2.67 3.624 3.624 0 01-.99 2.67 3.857 3.857 0 01-5.16 0zM123.24 18h-4.5v15h4.5v-6.78a3.036 3.036 0 011.41-2.85 4.447 4.447 0 013.09-.57v-5.1a4.468 4.468 0 00-4.5 2.97z" transform="translate(390 25)" fill="#fff"/><path id="Контур_10" data-name="Контур 10" d="M565.811 62.41l5.91 5.91 5.91-5.91z" transform="rotate(135 548.845 47.97)" fill="#19b5fe"/></g></svg>